<svg width="512" height="512" viewBox="0 0 512 512" fill="none" xmlns="http://www.w3.org/2000/svg">
  <rect width="512" height="512" rx="128" fill="#FFF7EA"/>
  <rect x="64" y="292" width="150" height="96" rx="32" fill="#5D8DFF"/>
  <rect x="198" y="276" width="160" height="112" rx="36" fill="#4BC88B"/>
  <rect x="342" y="308" width="106" height="80" rx="28" fill="#FFB44C"/>
  <rect x="104" y="252" width="58" height="58" rx="18" fill="#345ED6"/>
  <rect x="380" y="254" width="18" height="70" rx="9" fill="#EF6F1D"/>
  <circle cx="136" cy="402" r="30" fill="#253142"/>
  <circle cx="256" cy="402" r="30" fill="#253142"/>
  <circle cx="396" cy="402" r="30" fill="#253142"/>
  <path d="M80 240C104.5 212 139 198 183.5 198C217.5 198 248.5 207 277 225" stroke="#FF8A3D" stroke-width="20" stroke-linecap="round"/>
  <path d="M223 144L254 181" stroke="#FF8A3D" stroke-width="20" stroke-linecap="round"/>
  <path d="M254 181L297 130" stroke="#FF8A3D" stroke-width="20" stroke-linecap="round"/>
</svg>
